<svg width="180" height="234" viewBox="0 0 180 234" fill="none" xmlns="http://www.w3.org/2000/svg">
<rect width="180" height="180" rx="4" fill="black"/>
<path d="M1.01136 207V195.364H5.60227C6.48485 195.364 7.23674 195.532 7.85795 195.869C8.47917 196.203 8.95265 196.667 9.27841 197.261C9.60795 197.852 9.77273 198.534 9.77273 199.307C9.77273 200.08 9.60606 200.761 9.27273 201.352C8.93939 201.943 8.45644 202.403 7.82386 202.733C7.19508 203.062 6.43371 203.227 5.53977 203.227H2.61364V201.256H5.14205C5.61553 201.256 6.00568 201.174 6.3125 201.011C6.62311 200.845 6.85417 200.616 7.00568 200.324C7.16098 200.028 7.23864 199.689 7.23864 199.307C7.23864 198.92 7.16098 198.583 7.00568 198.295C6.85417 198.004 6.62311 197.778 6.3125 197.619C6.00189 197.456 5.60795 197.375 5.13068 197.375H3.47159V207H1.01136ZM13.7457 195.364V207H11.3253V195.364H13.7457ZM18.1733 207.165C17.6165 207.165 17.1203 207.068 16.6847 206.875C16.2491 206.678 15.9044 206.388 15.6506 206.006C15.4006 205.619 15.2756 205.138 15.2756 204.562C15.2756 204.078 15.3646 203.67 15.5426 203.341C15.7206 203.011 15.9631 202.746 16.2699 202.545C16.5767 202.345 16.9252 202.193 17.3153 202.091C17.7093 201.989 18.1222 201.917 18.554 201.875C19.0616 201.822 19.4706 201.773 19.7812 201.727C20.0919 201.678 20.3172 201.606 20.4574 201.511C20.5975 201.417 20.6676 201.277 20.6676 201.091V201.057C20.6676 200.697 20.554 200.419 20.3267 200.222C20.1032 200.025 19.785 199.926 19.3722 199.926C18.9366 199.926 18.59 200.023 18.3324 200.216C18.0748 200.405 17.9044 200.644 17.821 200.932L15.5824 200.75C15.696 200.22 15.9195 199.761 16.2528 199.375C16.5862 198.985 17.0161 198.686 17.5426 198.477C18.0729 198.265 18.6866 198.159 19.3835 198.159C19.8684 198.159 20.3324 198.216 20.7756 198.33C21.2225 198.443 21.6184 198.619 21.9631 198.858C22.3116 199.097 22.5862 199.403 22.7869 199.778C22.9877 200.15 23.0881 200.595 23.0881 201.114V207H20.7926V205.79H20.7244C20.5843 206.062 20.3968 206.303 20.1619 206.511C19.9271 206.716 19.6449 206.877 19.3153 206.994C18.9858 207.108 18.6051 207.165 18.1733 207.165ZM18.8665 205.494C19.2225 205.494 19.5369 205.424 19.8097 205.284C20.0824 205.14 20.2964 204.947 20.4517 204.705C20.607 204.462 20.6847 204.187 20.6847 203.881V202.955C20.6089 203.004 20.5047 203.049 20.3722 203.091C20.2434 203.129 20.0975 203.165 19.9347 203.199C19.7718 203.229 19.6089 203.258 19.446 203.284C19.2831 203.307 19.1354 203.328 19.0028 203.347C18.7188 203.388 18.4706 203.455 18.2585 203.545C18.0464 203.636 17.8816 203.759 17.7642 203.915C17.6468 204.066 17.5881 204.256 17.5881 204.483C17.5881 204.812 17.7074 205.064 17.946 205.239C18.1884 205.409 18.4953 205.494 18.8665 205.494ZM26.1477 210.273C25.8409 210.273 25.553 210.248 25.2841 210.199C25.0189 210.153 24.7992 210.095 24.625 210.023L25.1705 208.216C25.4545 208.303 25.7102 208.35 25.9375 208.358C26.1686 208.366 26.3674 208.313 26.5341 208.199C26.7045 208.085 26.8428 207.892 26.9489 207.619L27.0909 207.25L23.9602 198.273H26.5057L28.3125 204.682H28.4034L30.2273 198.273H32.7898L29.3977 207.943C29.2348 208.413 29.0133 208.822 28.733 209.17C28.4564 209.523 28.1061 209.794 27.6818 209.983C27.2576 210.176 26.7462 210.273 26.1477 210.273ZM36.4489 195.364V207H34.0284V195.364H36.4489ZM38.3878 207V198.273H40.8082V207H38.3878ZM39.6037 197.148C39.2438 197.148 38.9351 197.028 38.6776 196.79C38.4238 196.547 38.2969 196.258 38.2969 195.92C38.2969 195.587 38.4238 195.301 38.6776 195.062C38.9351 194.82 39.2438 194.699 39.6037 194.699C39.9635 194.699 40.2704 194.82 40.5241 195.062C40.7817 195.301 40.9105 195.587 40.9105 195.92C40.9105 196.258 40.7817 196.547 40.5241 196.79C40.2704 197.028 39.9635 197.148 39.6037 197.148ZM50.0085 200.761L47.7926 200.898C47.7547 200.708 47.6733 200.538 47.5483 200.386C47.4233 200.231 47.2585 200.108 47.054 200.017C46.8532 199.922 46.6127 199.875 46.3324 199.875C45.9574 199.875 45.6411 199.955 45.3835 200.114C45.1259 200.269 44.9972 200.477 44.9972 200.739C44.9972 200.947 45.0805 201.123 45.2472 201.267C45.4138 201.411 45.6998 201.527 46.1051 201.614L47.6847 201.932C48.5331 202.106 49.1657 202.386 49.5824 202.773C49.9991 203.159 50.2074 203.667 50.2074 204.295C50.2074 204.867 50.0388 205.369 49.7017 205.801C49.3684 206.233 48.91 206.57 48.3267 206.812C47.7472 207.051 47.0786 207.17 46.321 207.17C45.1657 207.17 44.2453 206.93 43.5597 206.449C42.8778 205.964 42.4782 205.305 42.3608 204.472L44.7415 204.347C44.8134 204.699 44.9877 204.968 45.2642 205.153C45.5407 205.335 45.8949 205.426 46.3267 205.426C46.7509 205.426 47.0919 205.345 47.3494 205.182C47.6108 205.015 47.7434 204.801 47.7472 204.54C47.7434 204.32 47.6506 204.14 47.4688 204C47.2869 203.856 47.0066 203.746 46.6278 203.67L45.1165 203.369C44.2642 203.199 43.6297 202.903 43.2131 202.483C42.8002 202.062 42.5938 201.527 42.5938 200.875C42.5938 200.314 42.7453 199.831 43.0483 199.426C43.3551 199.021 43.785 198.708 44.3381 198.489C44.8949 198.269 45.5464 198.159 46.2926 198.159C47.3949 198.159 48.2623 198.392 48.8949 198.858C49.5313 199.324 49.9025 199.958 50.0085 200.761ZM56.3736 198.273V200.091H51.1179V198.273H56.3736ZM52.3111 196.182H54.7315V204.318C54.7315 204.542 54.7656 204.716 54.8338 204.841C54.902 204.962 54.9967 205.047 55.1179 205.097C55.2429 205.146 55.3868 205.17 55.5497 205.17C55.6634 205.17 55.777 205.161 55.8906 205.142C56.0043 205.119 56.0914 205.102 56.152 205.091L56.5327 206.892C56.4115 206.93 56.241 206.973 56.0213 207.023C55.8016 207.076 55.5346 207.108 55.2202 207.119C54.6368 207.142 54.1255 207.064 53.6861 206.886C53.2505 206.708 52.9115 206.432 52.669 206.057C52.4266 205.682 52.3073 205.208 52.3111 204.636V196.182ZM71.4318 195.364V207H69.3068L64.2443 199.676H64.1591V207H61.6989V195.364H63.858L68.8807 202.682H68.983V195.364H71.4318ZM75.9077 207.165C75.3509 207.165 74.8546 207.068 74.419 206.875C73.9834 206.678 73.6387 206.388 73.3849 206.006C73.1349 205.619 73.0099 205.138 73.0099 204.562C73.0099 204.078 73.099 203.67 73.277 203.341C73.455 203.011 73.6974 202.746 74.0043 202.545C74.3111 202.345 74.6596 202.193 75.0497 202.091C75.4437 201.989 75.8565 201.917 76.2884 201.875C76.7959 201.822 77.205 201.773 77.5156 201.727C77.8262 201.678 78.0516 201.606 78.1918 201.511C78.3319 201.417 78.402 201.277 78.402 201.091V201.057C78.402 200.697 78.2884 200.419 78.0611 200.222C77.8376 200.025 77.5194 199.926 77.1065 199.926C76.6709 199.926 76.3243 200.023 76.0668 200.216C75.8092 200.405 75.6387 200.644 75.5554 200.932L73.3168 200.75C73.4304 200.22 73.6539 199.761 73.9872 199.375C74.3205 198.985 74.7505 198.686 75.277 198.477C75.8073 198.265 76.4209 198.159 77.1179 198.159C77.6027 198.159 78.0668 198.216 78.5099 198.33C78.9569 198.443 79.3527 198.619 79.6974 198.858C80.0459 199.097 80.3205 199.403 80.5213 199.778C80.7221 200.15 80.8224 200.595 80.8224 201.114V207H78.527V205.79H78.4588C78.3187 206.062 78.1312 206.303 77.8963 206.511C77.6615 206.716 77.3793 206.877 77.0497 206.994C76.7202 207.108 76.3395 207.165 75.9077 207.165ZM76.6009 205.494C76.9569 205.494 77.2713 205.424 77.544 205.284C77.8168 205.14 78.0308 204.947 78.1861 204.705C78.3414 204.462 78.419 204.187 78.419 203.881V202.955C78.3433 203.004 78.2391 203.049 78.1065 203.091C77.9777 203.129 77.8319 203.165 77.669 203.199C77.5062 203.229 77.3433 203.258 77.1804 203.284C77.0175 203.307 76.8698 203.328 76.7372 203.347C76.4531 203.388 76.205 203.455 75.9929 203.545C75.7808 203.636 75.616 203.759 75.4986 203.915C75.3812 204.066 75.3224 204.256 75.3224 204.483C75.3224 204.812 75.4418 205.064 75.6804 205.239C75.9228 205.409 76.2296 205.494 76.6009 205.494ZM82.7003 207V198.273H85.0071V199.812H85.1094C85.2912 199.301 85.5942 198.898 86.0185 198.602C86.4427 198.307 86.9503 198.159 87.5412 198.159C88.1397 198.159 88.6491 198.309 89.0696 198.608C89.4901 198.903 89.7704 199.305 89.9105 199.812H90.0014C90.1795 199.312 90.5014 198.913 90.9673 198.614C91.437 198.311 91.992 198.159 92.6321 198.159C93.4465 198.159 94.1075 198.419 94.6151 198.938C95.1264 199.453 95.3821 200.184 95.3821 201.131V207H92.9673V201.608C92.9673 201.123 92.8385 200.759 92.581 200.517C92.3234 200.275 92.0014 200.153 91.6151 200.153C91.1757 200.153 90.8329 200.294 90.5866 200.574C90.3404 200.85 90.2173 201.216 90.2173 201.67V207H87.8707V201.557C87.8707 201.129 87.7476 200.788 87.5014 200.534C87.259 200.28 86.9389 200.153 86.5412 200.153C86.2723 200.153 86.0298 200.222 85.8139 200.358C85.6018 200.491 85.4332 200.678 85.3082 200.92C85.1832 201.159 85.1207 201.439 85.1207 201.761V207H82.7003ZM101.271 207.17C100.374 207.17 99.6009 206.989 98.9531 206.625C98.3092 206.258 97.813 205.739 97.4645 205.068C97.116 204.394 96.9418 203.597 96.9418 202.676C96.9418 201.778 97.116 200.991 97.4645 200.312C97.813 199.634 98.3035 199.106 98.9361 198.727C99.5724 198.348 100.319 198.159 101.175 198.159C101.75 198.159 102.286 198.252 102.783 198.438C103.283 198.619 103.718 198.894 104.089 199.261C104.464 199.629 104.756 200.091 104.964 200.648C105.173 201.201 105.277 201.848 105.277 202.591V203.256H97.9077V201.756H102.999C102.999 201.407 102.923 201.098 102.771 200.83C102.62 200.561 102.41 200.35 102.141 200.199C101.875 200.044 101.567 199.966 101.214 199.966C100.847 199.966 100.521 200.051 100.237 200.222C99.9569 200.388 99.7372 200.614 99.5781 200.898C99.419 201.178 99.3376 201.491 99.3338 201.835V203.261C99.3338 203.693 99.4134 204.066 99.5724 204.381C99.7353 204.695 99.9645 204.938 100.26 205.108C100.555 205.278 100.906 205.364 101.311 205.364C101.58 205.364 101.826 205.326 102.05 205.25C102.273 205.174 102.464 205.061 102.624 204.909C102.783 204.758 102.904 204.572 102.987 204.352L105.226 204.5C105.112 205.038 104.879 205.508 104.527 205.909C104.179 206.307 103.728 206.617 103.175 206.841C102.625 207.061 101.991 207.17 101.271 207.17Z" fill="white"/>
<path d="M1.88636 230H0.409091L4.68182 218.364H6.13636L10.4091 230H8.93182L5.45455 220.205H5.36364L1.88636 230ZM2.43182 225.455H8.38636V226.705H2.43182V225.455ZM11.8798 230V221.273H13.1752V222.591H13.2661C13.4252 222.159 13.7131 221.809 14.1298 221.54C14.5464 221.271 15.0161 221.136 15.5389 221.136C15.6373 221.136 15.7605 221.138 15.9082 221.142C16.0559 221.146 16.1677 221.152 16.2434 221.159V222.523C16.198 222.511 16.0938 222.494 15.9309 222.472C15.7718 222.445 15.6033 222.432 15.4252 222.432C15.001 222.432 14.6222 222.521 14.2889 222.699C13.9593 222.873 13.698 223.116 13.5048 223.426C13.3154 223.733 13.2207 224.083 13.2207 224.477V230H11.8798ZM22.0152 221.273V222.409H17.4925V221.273H22.0152ZM18.8107 219.182H20.1516V227.5C20.1516 227.879 20.2065 228.163 20.3164 228.352C20.43 228.538 20.5739 228.663 20.7482 228.727C20.9262 228.788 21.1137 228.818 21.3107 228.818C21.4584 228.818 21.5796 228.811 21.6743 228.795C21.769 228.777 21.8448 228.761 21.9016 228.75L22.1743 229.955C22.0834 229.989 21.9565 230.023 21.7936 230.057C21.6308 230.095 21.4243 230.114 21.1743 230.114C20.7955 230.114 20.4243 230.032 20.0607 229.869C19.7008 229.706 19.4016 229.458 19.163 229.125C18.9281 228.792 18.8107 228.371 18.8107 227.864V219.182ZM23.8723 230V221.273H25.2132V230H23.8723ZM24.5541 219.818C24.2927 219.818 24.0673 219.729 23.878 219.551C23.6923 219.373 23.5995 219.159 23.5995 218.909C23.5995 218.659 23.6923 218.445 23.878 218.267C24.0673 218.089 24.2927 218 24.5541 218C24.8155 218 25.0389 218.089 25.2245 218.267C25.4139 218.445 25.5086 218.659 25.5086 218.909C25.5086 219.159 25.4139 219.373 25.2245 219.551C25.0389 219.729 24.8155 219.818 24.5541 219.818ZM33.691 223.227L32.4864 223.568C32.4107 223.367 32.2989 223.172 32.1512 222.983C32.0073 222.79 31.8103 222.631 31.5603 222.506C31.3103 222.381 30.9902 222.318 30.6001 222.318C30.066 222.318 29.6209 222.441 29.2648 222.688C28.9126 222.93 28.7364 223.239 28.7364 223.614C28.7364 223.947 28.8576 224.21 29.1001 224.403C29.3425 224.597 29.7213 224.758 30.2364 224.886L31.5319 225.205C32.3122 225.394 32.8936 225.684 33.2762 226.074C33.6588 226.46 33.8501 226.958 33.8501 227.568C33.8501 228.068 33.7061 228.515 33.4182 228.909C33.1341 229.303 32.7364 229.614 32.2251 229.841C31.7137 230.068 31.119 230.182 30.441 230.182C29.5508 230.182 28.8141 229.989 28.2307 229.602C27.6474 229.216 27.2781 228.652 27.1228 227.909L28.3955 227.591C28.5167 228.061 28.7459 228.413 29.083 228.648C29.4239 228.883 29.869 229 30.4182 229C31.0432 229 31.5395 228.867 31.9069 228.602C32.2781 228.333 32.4637 228.011 32.4637 227.636C32.4637 227.333 32.3576 227.08 32.1455 226.875C31.9334 226.667 31.6076 226.511 31.1682 226.409L29.7137 226.068C28.9145 225.879 28.3273 225.585 27.9523 225.188C27.5811 224.786 27.3955 224.284 27.3955 223.682C27.3955 223.189 27.5338 222.754 27.8103 222.375C28.0906 221.996 28.4713 221.699 28.9523 221.483C29.4372 221.267 29.9864 221.159 30.6001 221.159C31.4637 221.159 32.1417 221.348 32.6341 221.727C33.1304 222.106 33.4826 222.606 33.691 223.227ZM39.504 221.273V222.409H34.9813V221.273H39.504ZM36.2994 219.182H37.6403V227.5C37.6403 227.879 37.6953 228.163 37.8051 228.352C37.9188 228.538 38.0627 228.663 38.2369 228.727C38.415 228.788 38.6025 228.818 38.7994 228.818C38.9472 228.818 39.0684 228.811 39.1631 228.795C39.2578 228.777 39.3335 228.761 39.3903 228.75L39.6631 229.955C39.5722 229.989 39.4453 230.023 39.2824 230.057C39.1195 230.095 38.9131 230.114 38.6631 230.114C38.2843 230.114 37.9131 230.032 37.5494 229.869C37.1896 229.706 36.8903 229.458 36.6517 229.125C36.4169 228.792 36.2994 228.371 36.2994 227.864V219.182ZM55.1101 218.364V230H53.7465L47.4056 220.864H47.2919V230H45.8828V218.364H47.2465L53.6101 227.523H53.7238V218.364H55.1101ZM60.1561 230.205C59.6031 230.205 59.1012 230.1 58.6504 229.892C58.1996 229.68 57.8417 229.375 57.5765 228.977C57.3114 228.576 57.1788 228.091 57.1788 227.523C57.1788 227.023 57.2773 226.617 57.4743 226.307C57.6712 225.992 57.9345 225.746 58.264 225.568C58.5936 225.39 58.9572 225.258 59.3549 225.17C59.7565 225.08 60.1599 225.008 60.5652 224.955C61.0955 224.886 61.5254 224.835 61.8549 224.801C62.1883 224.763 62.4307 224.701 62.5822 224.614C62.7375 224.527 62.8152 224.375 62.8152 224.159V224.114C62.8152 223.553 62.6618 223.117 62.3549 222.807C62.0519 222.496 61.5917 222.341 60.9743 222.341C60.3341 222.341 59.8322 222.481 59.4686 222.761C59.1049 223.042 58.8493 223.341 58.7015 223.659L57.4288 223.205C57.6561 222.674 57.9591 222.261 58.3379 221.966C58.7205 221.667 59.1371 221.458 59.5879 221.341C60.0424 221.22 60.4894 221.159 60.9288 221.159C61.2091 221.159 61.5311 221.193 61.8947 221.261C62.2621 221.326 62.6163 221.46 62.9572 221.665C63.3019 221.869 63.5879 222.178 63.8152 222.591C64.0424 223.004 64.1561 223.557 64.1561 224.25V230H62.8152V228.818H62.747C62.6561 229.008 62.5046 229.21 62.2924 229.426C62.0803 229.642 61.7981 229.826 61.4459 229.977C61.0936 230.129 60.6637 230.205 60.1561 230.205ZM60.3606 229C60.8909 229 61.3379 228.896 61.7015 228.688C62.069 228.479 62.3455 228.21 62.5311 227.881C62.7205 227.551 62.8152 227.205 62.8152 226.841V225.614C62.7584 225.682 62.6334 225.744 62.4402 225.801C62.2508 225.854 62.0311 225.902 61.7811 225.943C61.5349 225.981 61.2943 226.015 61.0595 226.045C60.8284 226.072 60.6409 226.095 60.497 226.114C60.1485 226.159 59.8227 226.233 59.5197 226.335C59.2205 226.434 58.9781 226.583 58.7924 226.784C58.6106 226.981 58.5197 227.25 58.5197 227.591C58.5197 228.057 58.6921 228.409 59.0368 228.648C59.3852 228.883 59.8265 229 60.3606 229ZM66.4435 230V221.273H67.739V222.636H67.8526C68.0344 222.17 68.328 221.809 68.7333 221.551C69.1386 221.29 69.6253 221.159 70.1935 221.159C70.7693 221.159 71.2484 221.29 71.631 221.551C72.0174 221.809 72.3185 222.17 72.5344 222.636H72.6253C72.8488 222.186 73.1841 221.828 73.631 221.562C74.078 221.294 74.614 221.159 75.239 221.159C76.0193 221.159 76.6575 221.403 77.1537 221.892C77.65 222.377 77.8981 223.133 77.8981 224.159V230H76.5572V224.159C76.5572 223.515 76.381 223.055 76.0287 222.778C75.6765 222.502 75.2617 222.364 74.7844 222.364C74.1708 222.364 73.6954 222.549 73.3583 222.92C73.0212 223.288 72.8526 223.754 72.8526 224.318V230H71.489V224.023C71.489 223.527 71.328 223.127 71.006 222.824C70.6841 222.517 70.2693 222.364 69.7617 222.364C69.4132 222.364 69.0875 222.456 68.7844 222.642C68.4852 222.828 68.2428 223.085 68.0572 223.415C67.8753 223.741 67.7844 224.117 67.7844 224.545V230H66.4435ZM83.8489 230.182C83.008 230.182 82.2826 229.996 81.6727 229.625C81.0667 229.25 80.5989 228.727 80.2693 228.057C79.9436 227.383 79.7807 226.598 79.7807 225.705C79.7807 224.811 79.9436 224.023 80.2693 223.341C80.5989 222.655 81.0572 222.121 81.6443 221.739C82.2352 221.352 82.9246 221.159 83.7125 221.159C84.167 221.159 84.6159 221.235 85.0591 221.386C85.5023 221.538 85.9057 221.784 86.2693 222.125C86.633 222.462 86.9227 222.909 87.1386 223.466C87.3545 224.023 87.4625 224.708 87.4625 225.523V226.091H80.7352V224.932H86.0989C86.0989 224.439 86.0004 224 85.8034 223.614C85.6102 223.227 85.3337 222.922 84.9739 222.699C84.6178 222.475 84.1974 222.364 83.7125 222.364C83.1784 222.364 82.7163 222.496 82.3261 222.761C81.9398 223.023 81.6424 223.364 81.4341 223.784C81.2258 224.205 81.1216 224.655 81.1216 225.136V225.909C81.1216 226.568 81.2352 227.127 81.4625 227.585C81.6936 228.04 82.0136 228.386 82.4227 228.625C82.8318 228.86 83.3072 228.977 83.8489 228.977C84.2011 228.977 84.5193 228.928 84.8034 228.83C85.0913 228.727 85.3394 228.576 85.5477 228.375C85.7561 228.17 85.917 227.917 86.0307 227.614L87.3261 227.977C87.1898 228.417 86.9606 228.803 86.6386 229.136C86.3167 229.466 85.9189 229.723 85.4455 229.909C84.972 230.091 84.4398 230.182 83.8489 230.182Z" fill="white" fill-opacity="0.7"/>
<circle cx="93" cy="224.5" r="2" fill="black"/>
<path d="M102.068 230.159C101.591 230.152 101.114 230.061 100.636 229.886C100.159 229.712 99.7235 229.419 99.3295 229.006C98.9356 228.589 98.6193 228.027 98.3807 227.318C98.142 226.606 98.0227 225.712 98.0227 224.636C98.0227 223.606 98.1193 222.693 98.3125 221.898C98.5057 221.098 98.786 220.426 99.1534 219.881C99.5208 219.331 99.964 218.915 100.483 218.631C101.006 218.347 101.595 218.205 102.25 218.205C102.902 218.205 103.481 218.335 103.989 218.597C104.5 218.854 104.917 219.214 105.239 219.676C105.561 220.138 105.769 220.67 105.864 221.273H104.477C104.348 220.75 104.098 220.316 103.727 219.972C103.356 219.627 102.864 219.455 102.25 219.455C101.348 219.455 100.638 219.847 100.119 220.631C99.6042 221.415 99.3447 222.515 99.3409 223.932H99.4318C99.6439 223.61 99.8958 223.335 100.188 223.108C100.483 222.877 100.809 222.699 101.165 222.574C101.521 222.449 101.898 222.386 102.295 222.386C102.962 222.386 103.572 222.553 104.125 222.886C104.678 223.216 105.121 223.672 105.455 224.256C105.788 224.835 105.955 225.5 105.955 226.25C105.955 226.97 105.794 227.629 105.472 228.227C105.15 228.822 104.697 229.295 104.114 229.648C103.534 229.996 102.852 230.167 102.068 230.159ZM102.068 228.909C102.545 228.909 102.973 228.79 103.352 228.551C103.735 228.312 104.036 227.992 104.256 227.591C104.479 227.189 104.591 226.742 104.591 226.25C104.591 225.769 104.483 225.331 104.267 224.938C104.055 224.54 103.761 224.223 103.386 223.989C103.015 223.754 102.591 223.636 102.114 223.636C101.754 223.636 101.419 223.708 101.108 223.852C100.797 223.992 100.525 224.186 100.29 224.432C100.059 224.678 99.8769 224.96 99.7443 225.278C99.6117 225.593 99.5455 225.924 99.5455 226.273C99.5455 226.735 99.6534 227.167 99.8693 227.568C100.089 227.97 100.388 228.294 100.767 228.54C101.15 228.786 101.583 228.909 102.068 228.909ZM111.756 230.159C110.976 230.159 110.286 230.021 109.688 229.744C109.093 229.464 108.629 229.08 108.296 228.591C107.963 228.098 107.798 227.538 107.802 226.909C107.798 226.417 107.894 225.962 108.091 225.545C108.288 225.125 108.557 224.775 108.898 224.494C109.243 224.21 109.627 224.03 110.052 223.955V223.886C109.495 223.742 109.052 223.43 108.722 222.949C108.393 222.464 108.23 221.913 108.233 221.295C108.23 220.705 108.379 220.176 108.682 219.71C108.985 219.244 109.402 218.877 109.932 218.608C110.466 218.339 111.074 218.205 111.756 218.205C112.43 218.205 113.033 218.339 113.563 218.608C114.093 218.877 114.51 219.244 114.813 219.71C115.12 220.176 115.275 220.705 115.279 221.295C115.275 221.913 115.107 222.464 114.773 222.949C114.444 223.43 114.006 223.742 113.461 223.886V223.955C113.881 224.03 114.26 224.21 114.597 224.494C114.934 224.775 115.203 225.125 115.404 225.545C115.605 225.962 115.707 226.417 115.711 226.909C115.707 227.538 115.536 228.098 115.199 228.591C114.866 229.08 114.402 229.464 113.807 229.744C113.216 230.021 112.533 230.159 111.756 230.159ZM111.756 228.909C112.283 228.909 112.737 228.824 113.12 228.653C113.502 228.483 113.798 228.242 114.006 227.932C114.215 227.621 114.321 227.258 114.324 226.841C114.321 226.402 114.207 226.013 113.983 225.676C113.76 225.339 113.455 225.074 113.069 224.881C112.686 224.687 112.249 224.591 111.756 224.591C111.26 224.591 110.817 224.687 110.427 224.881C110.04 225.074 109.735 225.339 109.512 225.676C109.292 226.013 109.184 226.402 109.188 226.841C109.184 227.258 109.285 227.621 109.489 227.932C109.697 228.242 109.995 228.483 110.381 228.653C110.768 228.824 111.226 228.909 111.756 228.909ZM111.756 223.386C112.173 223.386 112.542 223.303 112.864 223.136C113.19 222.97 113.446 222.737 113.631 222.438C113.817 222.138 113.911 221.788 113.915 221.386C113.911 220.992 113.819 220.65 113.637 220.358C113.455 220.062 113.203 219.835 112.881 219.676C112.559 219.513 112.184 219.432 111.756 219.432C111.321 219.432 110.94 219.513 110.614 219.676C110.288 219.835 110.036 220.062 109.858 220.358C109.68 220.65 109.593 220.992 109.597 221.386C109.593 221.788 109.682 222.138 109.864 222.438C110.05 222.737 110.305 222.97 110.631 223.136C110.957 223.303 111.332 223.386 111.756 223.386ZM128.273 223.227L127.068 223.568C126.993 223.367 126.881 223.172 126.733 222.983C126.589 222.79 126.392 222.631 126.142 222.506C125.892 222.381 125.572 222.318 125.182 222.318C124.648 222.318 124.203 222.441 123.847 222.688C123.494 222.93 123.318 223.239 123.318 223.614C123.318 223.947 123.44 224.21 123.682 224.403C123.924 224.597 124.303 224.758 124.818 224.886L126.114 225.205C126.894 225.394 127.475 225.684 127.858 226.074C128.241 226.46 128.432 226.958 128.432 227.568C128.432 228.068 128.288 228.515 128 228.909C127.716 229.303 127.318 229.614 126.807 229.841C126.296 230.068 125.701 230.182 125.023 230.182C124.133 230.182 123.396 229.989 122.813 229.602C122.229 229.216 121.86 228.652 121.705 227.909L122.977 227.591C123.099 228.061 123.328 228.413 123.665 228.648C124.006 228.883 124.451 229 125 229C125.625 229 126.121 228.867 126.489 228.602C126.86 228.333 127.046 228.011 127.046 227.636C127.046 227.333 126.94 227.08 126.727 226.875C126.515 226.667 126.19 226.511 125.75 226.409L124.296 226.068C123.496 225.879 122.909 225.585 122.534 225.188C122.163 224.786 121.977 224.284 121.977 223.682C121.977 223.189 122.116 222.754 122.392 222.375C122.672 221.996 123.053 221.699 123.534 221.483C124.019 221.267 124.568 221.159 125.182 221.159C126.046 221.159 126.724 221.348 127.216 221.727C127.712 222.106 128.065 222.606 128.273 223.227ZM133.836 230.182C133.048 230.182 132.357 229.994 131.762 229.619C131.171 229.244 130.709 228.72 130.376 228.045C130.046 227.371 129.881 226.583 129.881 225.682C129.881 224.773 130.046 223.979 130.376 223.301C130.709 222.623 131.171 222.097 131.762 221.722C132.357 221.347 133.048 221.159 133.836 221.159C134.624 221.159 135.313 221.347 135.904 221.722C136.499 222.097 136.961 222.623 137.29 223.301C137.624 223.979 137.79 224.773 137.79 225.682C137.79 226.583 137.624 227.371 137.29 228.045C136.961 228.72 136.499 229.244 135.904 229.619C135.313 229.994 134.624 230.182 133.836 230.182ZM133.836 228.977C134.434 228.977 134.927 228.824 135.313 228.517C135.699 228.21 135.985 227.807 136.171 227.307C136.357 226.807 136.449 226.265 136.449 225.682C136.449 225.098 136.357 224.555 136.171 224.051C135.985 223.547 135.699 223.14 135.313 222.83C134.927 222.519 134.434 222.364 133.836 222.364C133.237 222.364 132.745 222.519 132.359 222.83C131.972 223.14 131.686 223.547 131.501 224.051C131.315 224.555 131.222 225.098 131.222 225.682C131.222 226.265 131.315 226.807 131.501 227.307C131.686 227.807 131.972 228.21 132.359 228.517C132.745 228.824 133.237 228.977 133.836 228.977ZM141.018 224.75V230H139.677V221.273H140.973V222.636H141.086C141.291 222.193 141.602 221.837 142.018 221.568C142.435 221.295 142.973 221.159 143.632 221.159C144.223 221.159 144.74 221.28 145.183 221.523C145.626 221.761 145.971 222.125 146.217 222.614C146.463 223.098 146.586 223.712 146.586 224.455V230H145.245V224.545C145.245 223.86 145.067 223.326 144.711 222.943C144.355 222.557 143.867 222.364 143.245 222.364C142.817 222.364 142.435 222.456 142.098 222.642C141.764 222.828 141.501 223.098 141.308 223.455C141.115 223.811 141.018 224.242 141.018 224.75ZM152.399 233.455C151.752 233.455 151.195 233.371 150.729 233.205C150.263 233.042 149.875 232.826 149.564 232.557C149.257 232.292 149.013 232.008 148.831 231.705L149.899 230.955C150.021 231.114 150.174 231.295 150.36 231.5C150.545 231.708 150.799 231.888 151.121 232.04C151.447 232.195 151.873 232.273 152.399 232.273C153.104 232.273 153.685 232.102 154.144 231.761C154.602 231.42 154.831 230.886 154.831 230.159V228.386H154.718C154.619 228.545 154.479 228.742 154.297 228.977C154.119 229.208 153.861 229.415 153.524 229.597C153.191 229.775 152.74 229.864 152.172 229.864C151.468 229.864 150.835 229.697 150.274 229.364C149.718 229.03 149.276 228.545 148.951 227.909C148.629 227.273 148.468 226.5 148.468 225.591C148.468 224.697 148.625 223.919 148.939 223.256C149.254 222.589 149.691 222.074 150.252 221.71C150.812 221.343 151.46 221.159 152.195 221.159C152.763 221.159 153.214 221.254 153.547 221.443C153.884 221.629 154.142 221.841 154.32 222.08C154.502 222.314 154.642 222.508 154.74 222.659H154.877V221.273H156.172V230.25C156.172 231 156.002 231.61 155.661 232.08C155.324 232.553 154.869 232.9 154.297 233.119C153.729 233.343 153.096 233.455 152.399 233.455ZM152.354 228.659C152.892 228.659 153.346 228.536 153.718 228.29C154.089 228.044 154.371 227.689 154.564 227.227C154.757 226.765 154.854 226.212 154.854 225.568C154.854 224.939 154.759 224.384 154.57 223.903C154.38 223.422 154.1 223.045 153.729 222.773C153.358 222.5 152.899 222.364 152.354 222.364C151.786 222.364 151.312 222.508 150.933 222.795C150.558 223.083 150.276 223.47 150.087 223.955C149.901 224.439 149.808 224.977 149.808 225.568C149.808 226.174 149.903 226.71 150.093 227.176C150.286 227.638 150.57 228.002 150.945 228.267C151.324 228.528 151.793 228.659 152.354 228.659ZM164.648 223.227L163.444 223.568C163.368 223.367 163.256 223.172 163.109 222.983C162.965 222.79 162.768 222.631 162.518 222.506C162.268 222.381 161.948 222.318 161.558 222.318C161.023 222.318 160.578 222.441 160.222 222.688C159.87 222.93 159.694 223.239 159.694 223.614C159.694 223.947 159.815 224.21 160.058 224.403C160.3 224.597 160.679 224.758 161.194 224.886L162.489 225.205C163.27 225.394 163.851 225.684 164.234 226.074C164.616 226.46 164.808 226.958 164.808 227.568C164.808 228.068 164.664 228.515 164.376 228.909C164.092 229.303 163.694 229.614 163.183 229.841C162.671 230.068 162.076 230.182 161.398 230.182C160.508 230.182 159.772 229.989 159.188 229.602C158.605 229.216 158.236 228.652 158.08 227.909L159.353 227.591C159.474 228.061 159.703 228.413 160.041 228.648C160.381 228.883 160.826 229 161.376 229C162.001 229 162.497 228.867 162.864 228.602C163.236 228.333 163.421 228.011 163.421 227.636C163.421 227.333 163.315 227.08 163.103 226.875C162.891 226.667 162.565 226.511 162.126 226.409L160.671 226.068C159.872 225.879 159.285 225.585 158.91 225.188C158.539 224.786 158.353 224.284 158.353 223.682C158.353 223.189 158.491 222.754 158.768 222.375C159.048 221.996 159.429 221.699 159.91 221.483C160.395 221.267 160.944 221.159 161.558 221.159C162.421 221.159 163.099 221.348 163.592 221.727C164.088 222.106 164.44 222.606 164.648 223.227Z" fill="white" fill-opacity="0.7"/>
<circle cx="90" cy="90" r="16" fill="#EFDDDD"/>
<circle cx="160" cy="160" r="12" fill="#EFDDDD"/>
<mask id="mask0_5_488" style="mask-type:alpha" maskUnits="userSpaceOnUse" x="154" y="8" width="18" height="18">
<rect x="154" y="8" width="18" height="18" fill="#D9D9D9"/>
</mask>
<g mask="url(#mask0_5_488)">
<path d="M163 23.1875C162.594 23.1875 162.248 23.0453 161.964 22.7609C161.68 22.4766 161.537 22.1313 161.537 21.725C161.537 21.3188 161.68 20.9734 161.964 20.6891C162.248 20.4047 162.594 20.2625 163 20.2625C163.406 20.2625 163.752 20.4047 164.036 20.6891C164.32 20.9734 164.462 21.3188 164.462 21.725C164.462 22.1313 164.32 22.4766 164.036 22.7609C163.752 23.0453 163.406 23.1875 163 23.1875ZM163 18.4625C162.594 18.4625 162.248 18.3203 161.964 18.0359C161.68 17.7516 161.537 17.4062 161.537 17C161.537 16.5938 161.68 16.2484 161.964 15.9641C162.248 15.6797 162.594 15.5375 163 15.5375C163.406 15.5375 163.752 15.6797 164.036 15.9641C164.32 16.2484 164.462 16.5938 164.462 17C164.462 17.4062 164.32 17.7516 164.036 18.0359C163.752 18.3203 163.406 18.4625 163 18.4625ZM163 13.7375C162.594 13.7375 162.248 13.5953 161.964 13.3109C161.68 13.0266 161.537 12.6813 161.537 12.275C161.537 11.8687 161.68 11.5234 161.964 11.2391C162.248 10.9547 162.594 10.8125 163 10.8125C163.406 10.8125 163.752 10.9547 164.036 11.2391C164.32 11.5234 164.462 11.8687 164.462 12.275C164.462 12.6813 164.32 13.0266 164.036 13.3109C163.752 13.5953 163.406 13.7375 163 13.7375Z" fill="white"/>
</g>
</svg>
