<svg width="108" height="32" viewBox="0 0 108 32" fill="none" xmlns="http://www.w3.org/2000/svg">
<g clip-path="url(#clip0_861_456)">
<path d="M16.9066 32C25.8757 32 33.1466 24.8366 33.1466 16C33.1466 7.16344 25.8757 0 16.9066 0C7.93752 0 0.666626 7.16344 0.666626 16C0.666626 24.8366 7.93752 32 16.9066 32Z" fill="#FF0000"/>
<path d="M16.9066 25.6C22.2881 25.6 26.6506 21.302 26.6506 16C26.6506 10.6981 22.2881 6.40002 16.9066 6.40002C11.5251 6.40002 7.1626 10.6981 7.1626 16C7.1626 21.302 11.5251 25.6 16.9066 25.6Z" fill="#FF0000" stroke="white" stroke-width="1.2"/>
<path d="M13.6586 20.7267L22.0946 16.0013L13.6586 11.2733V20.7267ZM50.5773 12.856C49.8053 16.66 49.2186 21.304 48.9106 23.2213H48.6933C48.444 21.2453 47.8573 16.632 47.0573 12.888L45.08 3.56935H39.0533V28.7027H42.7906V7.98268L43.16 9.91735L46.96 28.6987H50.6986L54.436 9.91735L54.836 7.97201V28.7013H58.5746V3.56801H52.4906L50.5773 12.856ZM68.68 24.928C68.3386 25.6173 67.6 26.096 66.856 26.096C65.992 26.096 65.6506 25.4373 65.6506 23.8213V10.3387H61.3866V24.0587C61.3866 27.4453 62.528 29 65.064 29C66.792 29 68.1813 28.2507 69.1413 26.4547H69.2346L69.604 28.7H72.94V10.34H68.676V24.9267L68.68 24.928ZM81.1893 17.5867C79.7986 16.5973 78.9346 15.9387 78.9346 14.5013C78.9346 13.484 79.428 12.9147 80.6013 12.9147C81.808 12.9147 82.2093 13.7213 82.2373 16.48L85.8226 16.332C86.1 11.8707 84.5853 10.012 80.6626 10.012C77.0186 10.012 75.2253 11.5987 75.2253 14.8627C75.2253 17.828 76.7093 19.176 79.1186 20.9453C81.1893 22.504 82.3946 23.372 82.3946 24.6307C82.3946 25.5907 81.776 26.248 80.6946 26.248C79.428 26.248 78.6853 25.0787 78.8746 23.0413L75.2613 23.1C74.7026 26.9027 76.2826 29.12 80.4813 29.12C84.1586 29.12 86.0746 27.472 86.0746 24.1787C86.0706 21.1827 84.528 19.9827 81.1893 17.5867ZM92.496 10.3387H88.4173V28.6987H92.4973V10.34L92.496 10.3387ZM90.4866 3.08801C88.9133 3.08801 88.1693 3.65735 88.1693 5.63601C88.1693 7.67335 88.908 8.18135 90.488 8.18135C92.0946 8.18135 92.8053 7.67068 92.8053 5.63601C92.8053 3.75068 92.0946 3.08801 90.4866 3.08801ZM106.211 22.08L102.473 21.9C102.473 25.1347 102.104 26.1827 100.839 26.1827C99.572 26.1827 99.3546 25.0133 99.3546 21.2093V17.6493C99.3546 13.9627 99.604 12.7973 100.871 12.7973C102.044 12.7973 102.353 13.904 102.353 17.3213L106.057 17.084C106.307 14.2387 105.933 12.2907 104.792 11.184C103.956 10.3733 102.691 9.98801 100.931 9.98801C96.792 9.98801 95.092 12.1453 95.092 18.1933V20.7693C95.092 27 96.5426 29.0067 100.777 29.0067C102.569 29.0067 103.804 28.6467 104.639 27.868C105.841 26.7827 106.303 24.928 106.211 22.08Z" fill="white"/>
</g>
<defs>
<clipPath id="clip0_861_456">
<rect width="106.667" height="32" fill="white" transform="translate(0.666626)"/>
</clipPath>
</defs>
</svg>
