<svg width="67" height="13" viewBox="0 0 67 13" fill="none" xmlns="http://www.w3.org/2000/svg">
<path d="M4.375 11.1392C3.62595 11.1392 2.98793 10.9354 2.46094 10.5277C1.93395 10.1167 1.53125 9.52178 1.25284 8.7429C0.974432 7.9607 0.835227 7.0161 0.835227 5.90909C0.835227 4.80871 0.974432 3.86908 1.25284 3.0902C1.53456 2.308 1.93892 1.71141 2.46591 1.30043C2.99621 0.886126 3.63258 0.678977 4.375 0.678977C5.11742 0.678977 5.75213 0.886126 6.27912 1.30043C6.80942 1.71141 7.21378 2.308 7.49219 3.0902C7.77391 3.86908 7.91477 4.80871 7.91477 5.90909C7.91477 7.0161 7.77557 7.9607 7.49716 8.7429C7.21875 9.52178 6.81605 10.1167 6.28906 10.5277C5.76207 10.9354 5.12405 11.1392 4.375 11.1392ZM4.375 10.0455C5.11742 10.0455 5.69413 9.6875 6.10511 8.97159C6.5161 8.25568 6.72159 7.23485 6.72159 5.90909C6.72159 5.02746 6.62713 4.27675 6.43821 3.65696C6.2526 3.03717 5.98414 2.56487 5.63281 2.24006C5.2848 1.91525 4.86553 1.75284 4.375 1.75284C3.6392 1.75284 3.06416 2.11577 2.64986 2.84162C2.23556 3.56416 2.02841 4.58665 2.02841 5.90909C2.02841 6.79072 2.12121 7.53977 2.30682 8.15625C2.49242 8.77273 2.75923 9.24171 3.10724 9.56321C3.45857 9.88471 3.88116 10.0455 4.375 10.0455ZM10.679 9.69744C10.4337 9.69744 10.2232 9.60961 10.0476 9.43395C9.87192 9.25829 9.78409 9.04782 9.78409 8.80256C9.78409 8.55729 9.87192 8.34683 10.0476 8.17116C10.2232 7.9955 10.4337 7.90767 10.679 7.90767C10.9242 7.90767 11.1347 7.9955 11.3104 8.17116C11.486 8.34683 11.5739 8.55729 11.5739 8.80256C11.5739 8.96496 11.5324 9.11411 11.4496 9.25C11.37 9.38589 11.2623 9.49527 11.1264 9.57812C10.9938 9.65767 10.8447 9.69744 10.679 9.69744ZM10.679 4.54688C10.4337 4.54688 10.2232 4.45904 10.0476 4.28338C9.87192 4.10772 9.78409 3.89725 9.78409 3.65199C9.78409 3.40672 9.87192 3.19626 10.0476 3.0206C10.2232 2.84493 10.4337 2.7571 10.679 2.7571C10.9242 2.7571 11.1347 2.84493 11.3104 3.0206C11.486 3.19626 11.5739 3.40672 11.5739 3.65199C11.5739 3.81439 11.5324 3.96354 11.4496 4.09943C11.37 4.23532 11.2623 4.3447 11.1264 4.42756C10.9938 4.5071 10.8447 4.54688 10.679 4.54688ZM17.239 0.818182V11H16.006V2.1108H15.9464L13.4606 3.76136V2.50852L16.006 0.818182H17.239ZM23.4883 11.1392C22.7392 11.1392 22.1012 10.9354 21.5742 10.5277C21.0472 10.1167 20.6445 9.52178 20.3661 8.7429C20.0877 7.9607 19.9485 7.0161 19.9485 5.90909C19.9485 4.80871 20.0877 3.86908 20.3661 3.0902C20.6478 2.308 21.0522 1.71141 21.5792 1.30043C22.1095 0.886126 22.7459 0.678977 23.4883 0.678977C24.2307 0.678977 24.8654 0.886126 25.3924 1.30043C25.9227 1.71141 26.3271 2.308 26.6055 3.0902C26.8872 3.86908 27.0281 4.80871 27.0281 5.90909C27.0281 7.0161 26.8888 7.9607 26.6104 8.7429C26.332 9.52178 25.9293 10.1167 25.4023 10.5277C24.8754 10.9354 24.2373 11.1392 23.4883 11.1392ZM23.4883 10.0455C24.2307 10.0455 24.8074 9.6875 25.2184 8.97159C25.6294 8.25568 25.8349 7.23485 25.8349 5.90909C25.8349 5.02746 25.7404 4.27675 25.5515 3.65696C25.3659 3.03717 25.0974 2.56487 24.7461 2.24006C24.3981 1.91525 23.9788 1.75284 23.4883 1.75284C22.7525 1.75284 22.1774 2.11577 21.7631 2.84162C21.3488 3.56416 21.1417 4.58665 21.1417 5.90909C21.1417 6.79072 21.2345 7.53977 21.4201 8.15625C21.6057 8.77273 21.8725 9.24171 22.2205 9.56321C22.5719 9.88471 22.9944 10.0455 23.4883 10.0455ZM36.4741 0.340908L33.1928 12.5312H32.119L35.4002 0.340908H36.4741ZM45.1035 11.1392C44.3545 11.1392 43.7164 10.9354 43.1895 10.5277C42.6625 10.1167 42.2598 9.52178 41.9814 8.7429C41.7029 7.9607 41.5637 7.0161 41.5637 5.90909C41.5637 4.80871 41.7029 3.86908 41.9814 3.0902C42.2631 2.308 42.6674 1.71141 43.1944 1.30043C43.7247 0.886126 44.3611 0.678977 45.1035 0.678977C45.8459 0.678977 46.4806 0.886126 47.0076 1.30043C47.5379 1.71141 47.9423 2.308 48.2207 3.0902C48.5024 3.86908 48.6433 4.80871 48.6433 5.90909C48.6433 7.0161 48.5041 7.9607 48.2257 8.7429C47.9473 9.52178 47.5446 10.1167 47.0176 10.5277C46.4906 10.9354 45.8526 11.1392 45.1035 11.1392ZM45.1035 10.0455C45.8459 10.0455 46.4226 9.6875 46.8336 8.97159C47.2446 8.25568 47.4501 7.23485 47.4501 5.90909C47.4501 5.02746 47.3556 4.27675 47.1667 3.65696C46.9811 3.03717 46.7127 2.56487 46.3613 2.24006C46.0133 1.91525 45.594 1.75284 45.1035 1.75284C44.3677 1.75284 43.7927 2.11577 43.3784 2.84162C42.9641 3.56416 42.7569 4.58665 42.7569 5.90909C42.7569 6.79072 42.8497 7.53977 43.0353 8.15625C43.2209 8.77273 43.4877 9.24171 43.8358 9.56321C44.1871 9.88471 44.6097 10.0455 45.1035 10.0455ZM51.4075 9.69744C51.1622 9.69744 50.9518 9.60961 50.7761 9.43395C50.6004 9.25829 50.5126 9.04782 50.5126 8.80256C50.5126 8.55729 50.6004 8.34683 50.7761 8.17116C50.9518 7.9955 51.1622 7.90767 51.4075 7.90767C51.6528 7.90767 51.8632 7.9955 52.0389 8.17116C52.2145 8.34683 52.3024 8.55729 52.3024 8.80256C52.3024 8.96496 52.2609 9.11411 52.1781 9.25C52.0985 9.38589 51.9908 9.49527 51.8549 9.57812C51.7224 9.65767 51.5732 9.69744 51.4075 9.69744ZM51.4075 4.54688C51.1622 4.54688 50.9518 4.45904 50.7761 4.28338C50.6004 4.10772 50.5126 3.89725 50.5126 3.65199C50.5126 3.40672 50.6004 3.19626 50.7761 3.0206C50.9518 2.84493 51.1622 2.7571 51.4075 2.7571C51.6528 2.7571 51.8632 2.84493 52.0389 3.0206C52.2145 3.19626 52.3024 3.40672 52.3024 3.65199C52.3024 3.81439 52.2609 3.96354 52.1781 4.09943C52.0985 4.23532 51.9908 4.3447 51.8549 4.42756C51.7224 4.5071 51.5732 4.54688 51.4075 4.54688ZM54.1493 8.91193V7.89773L58.6238 0.818182H59.3596V2.3892H58.8624L55.4817 7.73864V7.81818H61.5073V8.91193H54.1493ZM58.9419 11V8.60369V8.13139V0.818182H60.1152V11H58.9419ZM66.8132 0.818182V11H65.5803V2.1108H65.5206L63.0348 3.76136V2.50852L65.5803 0.818182H66.8132Z" fill="#D9D9D9" fill-opacity="0.7"/>
</svg>
